<?xml version="1.0" encoding="UTF-8"?>
<svg width="37.43mm" height="118.49mm" version="1.1" viewBox="0 0 37.43 118.49" xmlns="http://www.w3.org/2000/svg">
  <defs>
    <linearGradient id="linearGradient901" x1="120.31" x2="115.46" y1="186.83" y2="108.4" gradientUnits="userSpaceOnUse">
    <stop stop-color="#b7c7d9" offset="0"/>
    <stop stop-color="#b7c1c9" offset="1"/>
    </linearGradient>
  </defs>
  <g transform="translate(-91.328 -87.143)" stroke-width=".39688">
    <path d="m128.56 92.415v113.01s-15.848-6.0228-16.3-18.899c-0.38439-10.946 1.1931-15.946 4.3467-22.301 1.7275-3.4808 4.1709-7.759 4.1577-15.875-0.0137-8.42 0.0576-14.66-5.6696-21.167-12.283-13.953-20.269 1.7481-20.269 1.7481-2e-3 0.0287-1.5406-2.0092-1.4647-5.4334 0.06978-3.1472 0.92702-6.6136 1.7954-9.4966-9.5775-12.918 1.9588-21.806 9.3549-24.994 11.817-5.1988 24.049 3.4018 24.049 3.4018z" fill="url(#linearGradient901)" stroke="#fff" stroke-linecap="round" stroke-linejoin="round"/>
    <ellipse cx="101.34" cy="75.997" rx="1.5592" ry="1.5355" fill-opacity="0"/>
    <g stroke="#fff">
    <path d="m95.156 114.01s1.8629-4.0928 6.1894-2.7403c0 0-1.8791 2.1336-4.2049 6.424-2.5883 4.7745-2.3152 11.246-2.3152 11.246" fill="none" stroke-linecap="round" stroke-linejoin="round"/>
    <path d="m94.825 128.94s3.2738-8.763 5.3943-11.626c4.1505-5.6038 1.1258-6.0444 1.1258-6.0444" fill="none" stroke-linejoin="round"/>
    <circle transform="rotate(14.044)" cx="128.7" cy="68.476" r="2.8341" fill-opacity="0"/>
    <circle transform="rotate(14.044)" cx="128.73" cy="68.649" r="1.4871" fill-opacity="0"/>
    </g>
  </g>
</svg>
