<?xml version="1.0" encoding="UTF-8"?>
<svg height="374.999991pt" version="1.2"
  viewBox="0 0 375 374.999991" width="375pt" xmlns="http://www.w3.org/2000/svg">
  <g id="surface1">
    <path
      style=" stroke:none;fill-rule:nonzero;fill:rgb(45.098877%,45.098877%,45.098877%);fill-opacity:1;"
      d="M 313.238281 246.089844 L 301.234375 239.476562 L 303.628906 221.535156 L 313.714844 221.535156 C 316.988281 221.535156 319.632812 218.890625 319.632812 215.617188 L 319.632812 183.691406 C 319.632812 180.425781 316.988281 177.777344 313.714844 177.777344 L 285.078125 177.777344 L 285.078125 162.949219 C 285.078125 158.492188 283.546875 154.117188 280.769531 150.628906 L 268.984375 135.808594 L 268.984375 115.191406 C 268.984375 111.925781 266.339844 109.273438 263.070312 109.273438 L 229.433594 109.273438 C 228.53125 105.550781 227.8125 101.789062 227.46875 98.003906 L 226.078125 82.886719 C 228.046875 81.925781 229.4375 79.945312 229.4375 77.605469 L 229.4375 61.246094 C 229.4375 54.722656 224.132812 49.414062 217.605469 49.414062 L 189.796875 49.414062 C 183.269531 49.414062 177.964844 54.722656 177.964844 61.246094 L 177.964844 77.601562 C 177.964844 79.972656 179.382812 81.992188 181.398438 82.933594 L 179.925781 97.996094 C 178.980469 108.261719 176.074219 118.101562 171.296875 127.242188 C 169.78125 130.140625 170.898438 133.714844 173.792969 135.230469 C 174.667969 135.683594 175.609375 135.902344 176.53125 135.902344 C 178.660156 135.902344 180.71875 134.75 181.777344 132.734375 C 187.28125 122.21875 190.625 110.894531 191.707031 99.113281 L 193.230469 83.511719 L 214.246094 83.511719 L 215.675781 99.078125 C 215.992188 102.492188 216.566406 105.890625 217.269531 109.265625 L 209.5 109.265625 C 206.230469 109.265625 203.585938 111.917969 203.585938 115.183594 L 203.585938 135.804688 L 191.792969 150.625 C 189.019531 154.109375 187.488281 158.488281 187.488281 162.941406 L 187.488281 167.402344 C 187.441406 167.402344 187.398438 167.398438 187.359375 167.398438 C 178.023438 167.398438 169.628906 171.410156 163.730469 177.769531 L 162.734375 177.769531 C 163.464844 171.167969 163.488281 167.558594 163.488281 167.367188 C 163.488281 155.996094 160.097656 146.984375 153.40625 140.578125 C 152.371094 139.589844 151.292969 138.730469 150.199219 137.9375 C 154.53125 136.230469 158.648438 133.976562 161.613281 131.011719 C 170.65625 121.96875 165.875 110.390625 160.34375 104.699219 C 157.199219 101.640625 150.867188 97.800781 143.980469 98.636719 C 139.941406 93.605469 133.238281 91.453125 128.039062 91.382812 C 122.945312 91.453125 116.277344 93.601562 112.25 98.628906 C 105.363281 97.800781 99.015625 101.664062 95.777344 104.8125 C 90.359375 110.386719 85.578125 121.964844 94.625 131.003906 C 97.628906 134.015625 101.832031 136.289062 106.230469 138.003906 C 105.019531 138.875 103.820312 139.804688 102.6875 140.910156 C 96.097656 147.3125 92.761719 156.210938 92.761719 167.367188 C 92.761719 167.582031 92.773438 171.558594 93.464844 177.769531 L 60.898438 177.769531 C 57.632812 177.769531 54.980469 180.421875 54.980469 183.6875 L 54.980469 215.613281 C 54.980469 218.886719 57.632812 221.53125 60.898438 221.53125 L 70.984375 221.53125 L 73.386719 239.515625 L 61.476562 246.082031 C 53.242188 250.628906 50.238281 261.015625 54.773438 269.253906 L 56.175781 271.796875 C 59.277344 277.425781 65.121094 280.605469 71.140625 280.605469 C 73.675781 280.605469 76.226562 279.960938 78.632812 278.773438 L 82.652344 308.863281 C 83.921875 318.410156 92.140625 325.601562 101.765625 325.601562 L 272.835938 325.601562 C 282.457031 325.601562 290.679688 318.410156 291.953125 308.871094 L 295.984375 278.667969 C 298.453125 279.828125 301.054688 280.523438 303.675781 280.523438 C 305.191406 280.523438 306.699219 280.328125 308.171875 279.925781 C 312.628906 278.726562 316.300781 275.839844 318.539062 271.785156 L 319.933594 269.246094 C 324.476562 261.023438 321.472656 250.628906 313.238281 246.089844 Z M 189.796875 61.246094 L 217.59375 61.246094 L 217.59375 71.683594 L 189.796875 71.683594 Z M 307.804688 209.703125 L 281.15625 209.703125 C 277.882812 209.703125 275.238281 212.347656 275.238281 215.617188 C 275.238281 218.890625 277.882812 221.535156 281.15625 221.535156 L 291.695312 221.535156 L 290.117188 233.34375 L 219.109375 194.195312 C 218.835938 192.621094 218.46875 191.089844 217.984375 189.601562 L 307.804688 189.601562 Z M 257.160156 121.105469 L 257.160156 131.953125 L 215.417969 131.953125 L 215.417969 121.105469 Z M 199.324219 162.941406 C 199.324219 161.148438 199.941406 159.394531 201.054688 157.996094 L 212.359375 143.789062 L 260.222656 143.789062 L 271.523438 158.003906 C 272.636719 159.398438 273.25 161.15625 273.25 162.949219 L 273.25 177.777344 L 210.984375 177.777344 C 207.761719 174.296875 203.796875 171.523438 199.324219 169.730469 Z M 187.359375 179.230469 C 198.617188 179.230469 207.773438 188.390625 207.773438 199.65625 C 207.773438 210.921875 198.617188 220.074219 187.359375 220.074219 C 176.097656 220.074219 166.9375 210.914062 166.9375 199.65625 C 166.9375 188.394531 176.097656 179.230469 187.359375 179.230469 Z M 153.253906 122.640625 C 150.730469 125.160156 145.894531 127.152344 140.792969 128.597656 C 144.035156 123.25 146.957031 116.738281 147.378906 110.535156 C 149.820312 111.167969 151.972656 113.066406 151.984375 113.066406 C 152.53125 113.632812 157.210938 118.679688 153.253906 122.640625 Z M 127.996094 103.214844 C 129.808594 103.269531 135.710938 103.847656 135.710938 109.089844 C 135.710938 113.921875 131.964844 120.859375 128.132812 126.355469 C 124.554688 121.230469 120.535156 114.21875 120.535156 109.089844 C 120.535156 103.847656 126.433594 103.269531 127.996094 103.214844 Z M 104.113281 113.214844 C 104.144531 113.183594 106.367188 111.191406 108.871094 110.546875 C 109.289062 116.746094 112.21875 123.253906 115.457031 128.597656 C 110.527344 127.21875 105.621094 125.273438 102.996094 122.644531 C 99.285156 118.933594 103.050781 114.351562 104.113281 113.214844 Z M 104.585938 167.367188 C 104.585938 164.464844 104.976562 161.890625 105.5625 159.488281 L 116.289062 159.488281 C 119.554688 159.488281 122.207031 156.835938 122.207031 153.570312 C 122.207031 150.304688 119.554688 147.65625 116.289062 147.65625 L 113.070312 147.65625 C 119.476562 143.027344 127.519531 142.96875 128.328125 142.96875 C 128.351562 142.96875 128.363281 142.96875 128.375 142.96875 C 128.492188 142.980469 138.523438 142.707031 145.222656 149.132812 C 148.265625 152.042969 150.1875 156.042969 151.070312 160.972656 L 139.953125 160.972656 C 136.6875 160.972656 134.039062 163.625 134.039062 166.890625 C 134.039062 170.15625 136.6875 172.804688 139.953125 172.804688 L 151.339844 172.804688 C 151.222656 174.203125 151.050781 175.863281 150.828125 177.777344 L 105.375 177.777344 C 104.625 171.503906 104.585938 167.417969 104.585938 167.367188 Z M 82.929688 221.535156 L 92.632812 221.535156 C 95.898438 221.535156 98.546875 218.890625 98.546875 215.617188 C 98.546875 212.347656 95.898438 209.703125 92.632812 209.703125 L 66.8125 209.703125 L 66.8125 189.609375 L 156.730469 189.609375 C 156.238281 191.09375 155.871094 192.625 155.605469 194.199219 L 84.507812 233.390625 Z M 309.574219 263.550781 L 308.179688 266.082031 C 307.515625 267.292969 306.417969 268.160156 305.097656 268.515625 C 303.675781 268.890625 302.0625 268.679688 300.582031 267.855469 L 224.628906 225.984375 C 221.78125 224.410156 218.171875 225.445312 216.59375 228.316406 C 215.015625 231.171875 216.054688 234.777344 218.925781 236.351562 L 284.859375 272.703125 L 280.238281 307.308594 C 279.746094 311 276.570312 313.78125 272.847656 313.78125 L 101.773438 313.78125 C 98.050781 313.78125 94.875 311 94.382812 307.308594 L 89.769531 272.757812 L 155.796875 236.355469 C 158.652344 234.777344 159.699219 231.179688 158.121094 228.320312 C 156.542969 225.457031 152.949219 224.429688 150.082031 225.992188 L 73.636719 268.136719 C 71.121094 269.511719 67.925781 268.609375 66.542969 266.085938 L 65.144531 263.550781 C 63.753906 261.023438 64.679688 257.839844 67.199219 256.457031 L 156.105469 207.4375 C 159.601562 221.464844 172.273438 231.902344 187.363281 231.902344 C 202.460938 231.902344 215.128906 221.464844 218.625 207.429688 L 307.535156 256.449219 C 310.046875 257.847656 310.972656 261.027344 309.574219 263.550781 Z M 187.359375 297.894531 C 184.09375 297.894531 181.441406 295.25 181.441406 291.980469 L 181.441406 248.527344 C 181.441406 245.253906 184.09375 242.609375 187.359375 242.609375 C 190.625 242.609375 193.273438 245.253906 193.273438 248.527344 L 193.273438 291.980469 C 193.273438 295.25 190.628906 297.894531 187.359375 297.894531 Z M 143.621094 297.675781 C 140.726562 297.675781 138.195312 295.550781 137.777344 292.605469 L 134.203125 267.769531 C 133.734375 264.53125 135.984375 261.53125 139.214844 261.066406 C 142.457031 260.597656 145.441406 262.84375 145.910156 266.082031 L 149.484375 290.921875 C 149.949219 294.15625 147.703125 297.15625 144.472656 297.625 C 144.183594 297.660156 143.898438 297.675781 143.621094 297.675781 Z M 231.09375 297.675781 C 230.816406 297.675781 230.53125 297.660156 230.242188 297.617188 C 227.007812 297.148438 224.765625 294.152344 225.226562 290.914062 L 228.800781 266.074219 C 229.265625 262.84375 232.207031 260.621094 235.5 261.058594 C 238.738281 261.527344 240.980469 264.527344 240.519531 267.761719 L 236.945312 292.601562 C 236.519531 295.554688 233.988281 297.675781 231.09375 297.675781 Z M 231.09375 297.675781 "/>
    <rect style="fill:rgb(100%,100%,100%);fill-opacity:1;stroke:none;" height="374.999991"
      width="375" x="0"
      y="0"/>
    <rect style="fill:rgb(100%,100%,100%);fill-opacity:1;stroke:none;" height="374.999991"
      width="375" x="0"
      y="0"/>
    <rect style="fill:rgb(100%,100%,100%);fill-opacity:1;stroke:none;" height="374.999991"
      width="375" x="0"
      y="0"/>
  </g>
</svg>
