<?xml version="1.0" encoding="UTF-8"?>
<svg xmlns="http://www.w3.org/2000/svg" xmlns:xlink="http://www.w3.org/1999/xlink" width="375pt" height="374.999991pt" viewBox="0 0 375 374.999991" version="1.2">
<defs>
<clipPath id="clip1">
  <path d="M 141 89.097656 L 234 89.097656 L 234 181 L 141 181 Z M 141 89.097656 "/>
</clipPath>
<clipPath id="clip2">
  <path d="M 36.402344 220 L 338.652344 220 L 338.652344 285.597656 L 36.402344 285.597656 Z M 36.402344 220 "/>
</clipPath>
<clipPath id="clip3">
  <path d="M 102 193 L 273 193 L 273 285.597656 L 102 285.597656 Z M 102 193 "/>
</clipPath>
</defs>
<g id="surface1">
<path style=" stroke:none;fill-rule:nonzero;fill:rgb(100%,100%,100%);fill-opacity:1;" d="M 187.160156 0 C 184.097656 0 181.035156 0.0742188 177.976562 0.226562 C 174.917969 0.375 171.863281 0.601562 168.8125 0.902344 C 165.765625 1.203125 162.726562 1.578125 159.695312 2.027344 C 156.667969 2.476562 153.648438 3 150.644531 3.597656 C 147.640625 4.195312 144.65625 4.863281 141.683594 5.609375 C 138.710938 6.351562 135.761719 7.167969 132.828125 8.058594 C 129.898438 8.949219 126.992188 9.910156 124.105469 10.941406 C 121.222656 11.972656 118.367188 13.074219 115.535156 14.246094 C 112.707031 15.417969 109.90625 16.660156 107.136719 17.96875 C 104.371094 19.277344 101.632812 20.65625 98.933594 22.097656 C 96.230469 23.542969 93.566406 25.050781 90.941406 26.628906 C 88.3125 28.203125 85.726562 29.839844 83.179688 31.542969 C 80.632812 33.242188 78.128906 35.007812 75.667969 36.832031 C 73.207031 38.65625 70.792969 40.539062 68.425781 42.484375 C 66.058594 44.425781 63.742188 46.425781 61.472656 48.484375 C 59.203125 50.539062 56.984375 52.652344 54.816406 54.816406 C 52.652344 56.984375 50.539062 59.203125 48.484375 61.472656 C 46.425781 63.742188 44.425781 66.058594 42.484375 68.425781 C 40.539062 70.792969 38.65625 73.207031 36.832031 75.667969 C 35.007812 78.128906 33.242188 80.632812 31.542969 83.179688 C 29.839844 85.726562 28.203125 88.3125 26.628906 90.941406 C 25.050781 93.566406 23.542969 96.230469 22.097656 98.933594 C 20.65625 101.632812 19.277344 104.371094 17.96875 107.136719 C 16.660156 109.90625 15.417969 112.707031 14.246094 115.535156 C 13.074219 118.367188 11.972656 121.222656 10.941406 124.105469 C 9.910156 126.992188 8.949219 129.898438 8.058594 132.828125 C 7.167969 135.761719 6.351562 138.710938 5.609375 141.683594 C 4.863281 144.65625 4.195312 147.640625 3.597656 150.644531 C 3 153.648438 2.476562 156.667969 2.027344 159.695312 C 1.578125 162.726562 1.203125 165.765625 0.902344 168.8125 C 0.601562 171.863281 0.375 174.917969 0.226562 177.976562 C 0.0742188 181.035156 0 184.097656 0 187.160156 C 0 190.222656 0.0742188 193.285156 0.226562 196.34375 C 0.375 199.402344 0.601562 202.457031 0.902344 205.503906 C 1.203125 208.550781 1.578125 211.589844 2.027344 214.621094 C 2.476562 217.652344 3 220.667969 3.597656 223.671875 C 4.195312 226.675781 4.863281 229.664062 5.609375 232.636719 C 6.351562 235.605469 7.167969 238.558594 8.058594 241.488281 C 8.949219 244.417969 9.910156 247.328125 10.941406 250.210938 C 11.972656 253.09375 13.074219 255.953125 14.246094 258.78125 C 15.417969 261.613281 16.660156 264.410156 17.96875 267.179688 C 19.277344 269.949219 20.65625 272.683594 22.097656 275.386719 C 23.542969 278.085938 25.050781 280.75 26.628906 283.378906 C 28.203125 286.003906 29.839844 288.59375 31.542969 291.140625 C 33.242188 293.6875 35.007812 296.1875 36.832031 298.648438 C 38.65625 301.109375 40.539062 303.523438 42.484375 305.890625 C 44.425781 308.257812 46.425781 310.578125 48.484375 312.847656 C 50.539062 315.117188 52.652344 317.335938 54.816406 319.5 C 56.984375 321.667969 59.203125 323.777344 61.472656 325.835938 C 63.742188 327.890625 66.058594 329.890625 68.425781 331.835938 C 70.792969 333.777344 73.207031 335.660156 75.667969 337.488281 C 78.128906 339.3125 80.632812 341.074219 83.179688 342.777344 C 85.726562 344.476562 88.3125 346.117188 90.941406 347.691406 C 93.566406 349.265625 96.230469 350.773438 98.933594 352.21875 C 101.632812 353.664062 104.371094 355.039062 107.136719 356.347656 C 109.90625 357.660156 112.707031 358.898438 115.535156 360.070312 C 118.367188 361.242188 121.222656 362.34375 124.105469 363.378906 C 126.992188 364.410156 129.898438 365.371094 132.828125 366.257812 C 135.761719 367.148438 138.710938 367.964844 141.683594 368.710938 C 144.65625 369.453125 147.640625 370.125 150.644531 370.722656 C 153.648438 371.320312 156.667969 371.84375 159.695312 372.292969 C 162.726562 372.742188 165.765625 373.117188 168.8125 373.417969 C 171.863281 373.71875 174.917969 373.941406 177.976562 374.09375 C 181.035156 374.242188 184.097656 374.316406 187.160156 374.316406 C 190.222656 374.316406 193.285156 374.242188 196.34375 374.09375 C 199.402344 373.941406 202.457031 373.71875 205.503906 373.417969 C 208.550781 373.117188 211.589844 372.742188 214.621094 372.292969 C 217.652344 371.84375 220.667969 371.320312 223.671875 370.722656 C 226.675781 370.125 229.664062 369.453125 232.636719 368.710938 C 235.605469 367.964844 238.558594 367.148438 241.488281 366.257812 C 244.417969 365.371094 247.328125 364.410156 250.210938 363.378906 C 253.09375 362.34375 255.953125 361.242188 258.78125 360.070312 C 261.613281 358.898438 264.410156 357.660156 267.179688 356.347656 C 269.949219 355.039062 272.683594 353.664062 275.386719 352.21875 C 278.085938 350.773438 280.75 349.265625 283.378906 347.691406 C 286.003906 346.117188 288.59375 344.476562 291.140625 342.777344 C 293.6875 341.074219 296.1875 339.3125 298.648438 337.488281 C 301.109375 335.660156 303.523438 333.777344 305.890625 331.835938 C 308.257812 329.890625 310.578125 327.890625 312.847656 325.835938 C 315.117188 323.777344 317.335938 321.667969 319.5 319.5 C 321.667969 317.335938 323.777344 315.117188 325.835938 312.847656 C 327.890625 310.578125 329.890625 308.257812 331.835938 305.890625 C 333.777344 303.523438 335.660156 301.109375 337.488281 298.648438 C 339.3125 296.1875 341.074219 293.6875 342.777344 291.140625 C 344.476562 288.59375 346.117188 286.003906 347.691406 283.378906 C 349.265625 280.75 350.773438 278.085938 352.21875 275.386719 C 353.664062 272.683594 355.039062 269.949219 356.347656 267.179688 C 357.660156 264.410156 358.898438 261.613281 360.070312 258.78125 C 361.242188 255.953125 362.34375 253.09375 363.378906 250.210938 C 364.410156 247.328125 365.371094 244.417969 366.257812 241.488281 C 367.148438 238.558594 367.964844 235.605469 368.710938 232.636719 C 369.453125 229.664062 370.125 226.675781 370.722656 223.671875 C 371.320312 220.667969 371.84375 217.652344 372.292969 214.621094 C 372.742188 211.589844 373.117188 208.550781 373.417969 205.503906 C 373.71875 202.457031 373.941406 199.402344 374.09375 196.34375 C 374.242188 193.285156 374.316406 190.222656 374.316406 187.160156 C 374.316406 184.097656 374.242188 181.035156 374.09375 177.976562 C 373.941406 174.917969 373.71875 171.863281 373.417969 168.8125 C 373.117188 165.765625 372.742188 162.726562 372.292969 159.695312 C 371.84375 156.667969 371.320312 153.648438 370.722656 150.644531 C 370.125 147.640625 369.453125 144.65625 368.710938 141.683594 C 367.964844 138.710938 367.148438 135.761719 366.257812 132.828125 C 365.371094 129.898438 364.410156 126.992188 363.378906 124.105469 C 362.34375 121.222656 361.242188 118.367188 360.070312 115.535156 C 358.898438 112.707031 357.660156 109.90625 356.347656 107.136719 C 355.039062 104.371094 353.664062 101.632812 352.21875 98.933594 C 350.773438 96.230469 349.265625 93.566406 347.691406 90.941406 C 346.117188 88.3125 344.476562 85.726562 342.777344 83.179688 C 341.074219 80.632812 339.3125 78.128906 337.488281 75.667969 C 335.660156 73.207031 333.777344 70.792969 331.835938 68.425781 C 329.890625 66.058594 327.890625 63.742188 325.835938 61.472656 C 323.777344 59.203125 321.667969 56.984375 319.5 54.816406 C 317.335938 52.652344 315.117188 50.539062 312.847656 48.484375 C 310.578125 46.425781 308.257812 44.425781 305.890625 42.484375 C 303.523438 40.539062 301.109375 38.65625 298.648438 36.832031 C 296.1875 35.007812 293.6875 33.242188 291.140625 31.542969 C 288.59375 29.839844 286.003906 28.203125 283.378906 26.628906 C 280.75 25.050781 278.085938 23.542969 275.386719 22.097656 C 272.683594 20.65625 269.949219 19.277344 267.179688 17.96875 C 264.410156 16.660156 261.613281 15.417969 258.78125 14.246094 C 255.953125 13.074219 253.09375 11.972656 250.210938 10.941406 C 247.328125 9.910156 244.417969 8.949219 241.488281 8.058594 C 238.558594 7.167969 235.605469 6.351562 232.636719 5.609375 C 229.664062 4.863281 226.675781 4.195312 223.671875 3.597656 C 220.667969 3 217.652344 2.476562 214.621094 2.027344 C 211.589844 1.578125 208.550781 1.203125 205.503906 0.902344 C 202.457031 0.601562 199.402344 0.375 196.34375 0.226562 C 193.285156 0.0742188 190.222656 0 187.160156 0 Z M 187.160156 0 "/>
<g clip-path="url(#clip1)" clip-rule="nonzero">
<path style=" stroke:none;fill-rule:nonzero;fill:rgb(65.098572%,65.098572%,65.098572%);fill-opacity:1;" d="M 233.457031 134.945312 C 233.457031 136.449219 233.382812 137.945312 233.234375 139.441406 C 233.085938 140.933594 232.867188 142.417969 232.574219 143.890625 C 232.28125 145.363281 231.914062 146.820312 231.476562 148.257812 C 231.042969 149.691406 230.535156 151.105469 229.960938 152.492188 C 229.382812 153.878906 228.742188 155.234375 228.03125 156.558594 C 227.324219 157.882812 226.550781 159.171875 225.714844 160.417969 C 224.878906 161.667969 223.984375 162.871094 223.03125 164.035156 C 222.074219 165.195312 221.066406 166.304688 220.003906 167.367188 C 218.9375 168.429688 217.828125 169.4375 216.664062 170.390625 C 215.5 171.339844 214.292969 172.234375 213.042969 173.070312 C 211.792969 173.902344 210.503906 174.675781 209.175781 175.382812 C 207.851562 176.089844 206.492188 176.730469 205.101562 177.304688 C 203.710938 177.882812 202.296875 178.386719 200.859375 178.820312 C 199.417969 179.257812 197.960938 179.621094 196.484375 179.914062 C 195.011719 180.207031 193.523438 180.429688 192.027344 180.574219 C 190.53125 180.722656 189.03125 180.796875 187.527344 180.796875 C 186.019531 180.796875 184.519531 180.722656 183.023438 180.574219 C 181.527344 180.429688 180.039062 180.207031 178.566406 179.914062 C 177.089844 179.621094 175.632812 179.257812 174.191406 178.820312 C 172.753906 178.386719 171.339844 177.882812 169.949219 177.304688 C 168.558594 176.730469 167.199219 176.089844 165.875 175.382812 C 164.546875 174.675781 163.257812 173.902344 162.007812 173.070312 C 160.757812 172.234375 159.550781 171.339844 158.386719 170.390625 C 157.226562 169.4375 156.113281 168.429688 155.046875 167.367188 C 153.984375 166.304688 152.976562 165.195312 152.019531 164.035156 C 151.066406 162.871094 150.171875 161.667969 149.335938 160.417969 C 148.5 159.171875 147.726562 157.882812 147.019531 156.558594 C 146.308594 155.234375 145.667969 153.878906 145.09375 152.492188 C 144.515625 151.105469 144.011719 149.691406 143.574219 148.257812 C 143.136719 146.820312 142.773438 145.363281 142.476562 143.890625 C 142.183594 142.417969 141.964844 140.933594 141.816406 139.441406 C 141.667969 137.945312 141.59375 136.449219 141.59375 134.945312 C 141.59375 133.445312 141.667969 131.945312 141.816406 130.453125 C 141.964844 128.957031 142.183594 127.472656 142.476562 126 C 142.773438 124.527344 143.136719 123.074219 143.574219 121.636719 C 144.011719 120.199219 144.515625 118.789062 145.09375 117.402344 C 145.667969 116.011719 146.308594 114.65625 147.019531 113.332031 C 147.726562 112.007812 148.5 110.722656 149.335938 109.472656 C 150.171875 108.226562 151.066406 107.019531 152.019531 105.859375 C 152.976562 104.699219 153.984375 103.585938 155.046875 102.527344 C 156.113281 101.464844 157.226562 100.457031 158.386719 99.503906 C 159.550781 98.550781 160.757812 97.65625 162.007812 96.824219 C 163.257812 95.988281 164.546875 95.21875 165.875 94.511719 C 167.199219 93.800781 168.558594 93.160156 169.949219 92.585938 C 171.339844 92.011719 172.753906 91.507812 174.191406 91.070312 C 175.632812 90.636719 177.089844 90.269531 178.566406 89.976562 C 180.039062 89.683594 181.527344 89.464844 183.023438 89.316406 C 184.519531 89.171875 186.019531 89.097656 187.527344 89.097656 C 189.03125 89.097656 190.53125 89.171875 192.027344 89.316406 C 193.523438 89.464844 195.011719 89.683594 196.484375 89.976562 C 197.960938 90.269531 199.417969 90.636719 200.859375 91.070312 C 202.296875 91.507812 203.710938 92.011719 205.101562 92.585938 C 206.492188 93.160156 207.851562 93.800781 209.175781 94.511719 C 210.503906 95.21875 211.792969 95.988281 213.042969 96.824219 C 214.292969 97.65625 215.5 98.550781 216.664062 99.503906 C 217.828125 100.457031 218.9375 101.464844 220.003906 102.527344 C 221.066406 103.585938 222.074219 104.699219 223.03125 105.859375 C 223.984375 107.019531 224.878906 108.226562 225.714844 109.472656 C 226.550781 110.722656 227.324219 112.007812 228.03125 113.332031 C 228.742188 114.65625 229.382812 116.011719 229.960938 117.402344 C 230.535156 118.789062 231.042969 120.199219 231.476562 121.636719 C 231.914062 123.074219 232.28125 124.527344 232.574219 126 C 232.867188 127.472656 233.085938 128.957031 233.234375 130.453125 C 233.382812 131.945312 233.457031 133.445312 233.457031 134.945312 Z M 233.457031 134.945312 "/>
</g>
<g clip-path="url(#clip2)" clip-rule="nonzero">
<path style=" stroke:none;fill-rule:nonzero;fill:rgb(45.098877%,45.098877%,45.098877%);fill-opacity:1;" d="M 279.386719 220.097656 C 274.316406 220.09375 269.328125 220.730469 264.421875 222.011719 C 259.519531 223.292969 254.855469 225.175781 250.4375 227.65625 L 124.613281 227.65625 C 123.496094 227.027344 122.359375 226.4375 121.207031 225.882812 C 120.050781 225.328125 118.878906 224.816406 117.6875 224.335938 C 116.5 223.859375 115.296875 223.421875 114.078125 223.023438 C 112.859375 222.625 111.628906 222.265625 110.386719 221.945312 C 109.148438 221.625 107.898438 221.347656 106.636719 221.109375 C 105.378906 220.871094 104.113281 220.675781 102.839844 220.519531 C 101.566406 220.363281 100.292969 220.25 99.011719 220.179688 C 97.730469 220.105469 96.449219 220.074219 95.167969 220.085938 C 93.886719 220.097656 92.605469 220.148438 91.328125 220.242188 C 90.050781 220.335938 88.777344 220.472656 87.507812 220.648438 C 86.238281 220.824219 84.976562 221.042969 83.71875 221.300781 C 82.464844 221.5625 81.21875 221.859375 79.984375 222.199219 C 78.746094 222.539062 77.523438 222.921875 76.3125 223.339844 C 75.101562 223.757812 73.90625 224.21875 72.722656 224.714844 C 71.542969 225.210938 70.378906 225.746094 69.234375 226.320312 C 68.085938 226.894531 66.960938 227.503906 65.851562 228.148438 C 64.746094 228.796875 63.664062 229.476562 62.601562 230.195312 C 61.539062 230.910156 60.5 231.660156 59.488281 232.445312 C 58.472656 233.230469 57.488281 234.046875 56.527344 234.894531 C 55.566406 235.742188 54.636719 236.621094 53.734375 237.53125 C 52.832031 238.4375 51.960938 239.375 51.117188 240.339844 C 50.277344 241.308594 49.46875 242.296875 48.691406 243.316406 C 47.914062 244.335938 47.171875 245.378906 46.460938 246.445312 C 45.753906 247.511719 45.078125 248.597656 44.441406 249.707031 C 43.804688 250.820312 43.203125 251.949219 42.640625 253.097656 C 42.074219 254.246094 41.546875 255.414062 41.0625 256.597656 C 40.574219 257.78125 40.125 258.980469 39.714844 260.191406 C 39.304688 261.40625 38.933594 262.628906 38.605469 263.867188 C 38.273438 265.101562 37.984375 266.347656 37.734375 267.605469 C 37.488281 268.859375 37.277344 270.121094 37.113281 271.390625 C 36.945312 272.660156 36.820312 273.933594 36.738281 275.210938 C 36.65625 276.488281 36.613281 277.765625 36.613281 279.046875 C 36.613281 279.476562 36.65625 279.902344 36.738281 280.324219 C 36.824219 280.746094 36.949219 281.15625 37.113281 281.554688 C 37.277344 281.949219 37.480469 282.328125 37.71875 282.683594 C 37.957031 283.042969 38.230469 283.375 38.535156 283.679688 C 38.839844 283.980469 39.171875 284.253906 39.527344 284.492188 C 39.886719 284.730469 40.265625 284.933594 40.664062 285.097656 C 41.0625 285.261719 41.472656 285.386719 41.894531 285.46875 C 42.316406 285.554688 42.742188 285.597656 43.175781 285.597656 L 331.878906 285.597656 C 332.308594 285.597656 332.734375 285.554688 333.15625 285.46875 C 333.578125 285.386719 333.988281 285.261719 334.386719 285.097656 C 334.785156 284.933594 335.164062 284.730469 335.523438 284.492188 C 335.878906 284.253906 336.210938 283.980469 336.515625 283.679688 C 336.820312 283.375 337.09375 283.042969 337.332031 282.683594 C 337.570312 282.328125 337.773438 281.949219 337.9375 281.554688 C 338.105469 281.15625 338.226562 280.746094 338.3125 280.324219 C 338.398438 279.902344 338.4375 279.476562 338.4375 279.046875 C 338.4375 277.117188 338.34375 275.191406 338.152344 273.269531 C 337.964844 271.347656 337.679688 269.441406 337.304688 267.546875 C 336.925781 265.652344 336.457031 263.78125 335.894531 261.933594 C 335.335938 260.085938 334.683594 258.269531 333.941406 256.488281 C 333.203125 254.703125 332.378906 252.960938 331.464844 251.257812 C 330.554688 249.554688 329.5625 247.902344 328.484375 246.296875 C 327.410156 244.691406 326.261719 243.140625 325.035156 241.648438 C 323.808594 240.15625 322.511719 238.726562 321.140625 237.363281 C 319.773438 235.996094 318.34375 234.703125 316.847656 233.476562 C 315.351562 232.253906 313.800781 231.105469 312.195312 230.03125 C 310.585938 228.957031 308.929688 227.96875 307.222656 227.058594 C 305.515625 226.148438 303.769531 225.324219 301.984375 224.582031 C 300.199219 223.84375 298.378906 223.195312 296.527344 222.636719 C 294.675781 222.074219 292.804688 221.605469 290.90625 221.230469 C 289.007812 220.851562 287.097656 220.570312 285.175781 220.378906 C 283.25 220.191406 281.320312 220.097656 279.386719 220.097656 Z M 279.386719 220.097656 "/>
</g>
<path style=" stroke:none;fill-rule:nonzero;fill:rgb(45.098877%,45.098877%,45.098877%);fill-opacity:1;" d="M 312.191406 174.246094 C 312.191406 175.320312 312.140625 176.390625 312.035156 177.457031 C 311.929688 178.523438 311.773438 179.582031 311.5625 180.636719 C 311.351562 181.6875 311.09375 182.726562 310.78125 183.753906 C 310.46875 184.78125 310.105469 185.789062 309.695312 186.78125 C 309.285156 187.769531 308.824219 188.738281 308.320312 189.683594 C 307.8125 190.628906 307.261719 191.550781 306.664062 192.441406 C 306.066406 193.332031 305.425781 194.195312 304.746094 195.023438 C 304.0625 195.851562 303.34375 196.644531 302.582031 197.402344 C 301.824219 198.164062 301.027344 198.882812 300.199219 199.5625 C 299.367188 200.242188 298.503906 200.882812 297.613281 201.476562 C 296.71875 202.074219 295.796875 202.625 294.851562 203.128906 C 293.902344 203.636719 292.933594 204.09375 291.941406 204.503906 C 290.949219 204.914062 289.9375 205.273438 288.910156 205.585938 C 287.882812 205.898438 286.839844 206.15625 285.785156 206.367188 C 284.730469 206.578125 283.671875 206.734375 282.601562 206.839844 C 281.53125 206.945312 280.460938 206.996094 279.386719 206.996094 C 278.3125 206.996094 277.238281 206.945312 276.171875 206.839844 C 275.101562 206.734375 274.039062 206.578125 272.984375 206.367188 C 271.929688 206.15625 270.890625 205.898438 269.863281 205.585938 C 268.835938 205.273438 267.824219 204.914062 266.832031 204.503906 C 265.839844 204.09375 264.867188 203.636719 263.921875 203.128906 C 262.972656 202.625 262.050781 202.074219 261.160156 201.476562 C 260.265625 200.882812 259.402344 200.242188 258.574219 199.5625 C 257.742188 198.882812 256.949219 198.164062 256.1875 197.402344 C 255.429688 196.644531 254.707031 195.851562 254.027344 195.023438 C 253.34375 194.195312 252.703125 193.332031 252.109375 192.441406 C 251.511719 191.550781 250.957031 190.628906 250.453125 189.683594 C 249.945312 188.738281 249.488281 187.769531 249.074219 186.78125 C 248.664062 185.789062 248.304688 184.78125 247.992188 183.753906 C 247.679688 182.726562 247.417969 181.6875 247.207031 180.636719 C 247 179.582031 246.84375 178.523438 246.738281 177.457031 C 246.632812 176.390625 246.578125 175.320312 246.578125 174.246094 C 246.578125 173.175781 246.632812 172.105469 246.738281 171.035156 C 246.84375 169.96875 247 168.910156 247.207031 167.855469 C 247.417969 166.804688 247.679688 165.765625 247.992188 164.738281 C 248.304688 163.714844 248.664062 162.703125 249.074219 161.714844 C 249.488281 160.722656 249.945312 159.753906 250.453125 158.808594 C 250.957031 157.863281 251.511719 156.945312 252.109375 156.050781 C 252.703125 155.160156 253.34375 154.300781 254.027344 153.46875 C 254.707031 152.640625 255.429688 151.847656 256.1875 151.089844 C 256.949219 150.332031 257.742188 149.609375 258.574219 148.929688 C 259.402344 148.25 260.265625 147.613281 261.160156 147.015625 C 262.050781 146.421875 262.972656 145.871094 263.921875 145.363281 C 264.867188 144.859375 265.839844 144.398438 266.832031 143.988281 C 267.824219 143.578125 268.835938 143.21875 269.863281 142.90625 C 270.890625 142.59375 271.929688 142.335938 272.984375 142.125 C 274.039062 141.917969 275.101562 141.757812 276.171875 141.652344 C 277.238281 141.550781 278.3125 141.496094 279.386719 141.496094 C 280.460938 141.496094 281.53125 141.550781 282.601562 141.652344 C 283.671875 141.757812 284.730469 141.917969 285.785156 142.125 C 286.839844 142.335938 287.882812 142.59375 288.910156 142.90625 C 289.9375 143.21875 290.949219 143.578125 291.941406 143.988281 C 292.933594 144.398438 293.902344 144.859375 294.851562 145.363281 C 295.796875 145.871094 296.71875 146.421875 297.613281 147.015625 C 298.503906 147.613281 299.367188 148.25 300.199219 148.929688 C 301.027344 149.609375 301.824219 150.332031 302.582031 151.089844 C 303.34375 151.847656 304.0625 152.640625 304.746094 153.46875 C 305.425781 154.300781 306.066406 155.160156 306.664062 156.050781 C 307.261719 156.945312 307.8125 157.863281 308.320312 158.808594 C 308.824219 159.753906 309.285156 160.722656 309.695312 161.714844 C 310.105469 162.703125 310.46875 163.714844 310.78125 164.738281 C 311.09375 165.765625 311.351562 166.804688 311.5625 167.855469 C 311.773438 168.910156 311.929688 169.96875 312.035156 171.035156 C 312.140625 172.105469 312.191406 173.175781 312.191406 174.246094 Z M 312.191406 174.246094 "/>
<path style=" stroke:none;fill-rule:nonzero;fill:rgb(45.098877%,45.098877%,45.098877%);fill-opacity:1;" d="M 129.40625 174.246094 C 129.40625 175.320312 129.351562 176.390625 129.246094 177.457031 C 129.140625 178.523438 128.984375 179.582031 128.773438 180.636719 C 128.566406 181.6875 128.304688 182.726562 127.992188 183.753906 C 127.679688 184.78125 127.320312 185.789062 126.90625 186.78125 C 126.496094 187.769531 126.039062 188.738281 125.53125 189.683594 C 125.023438 190.628906 124.472656 191.550781 123.875 192.441406 C 123.277344 193.332031 122.640625 194.195312 121.957031 195.023438 C 121.277344 195.851562 120.554688 196.644531 119.796875 197.402344 C 119.035156 198.164062 118.242188 198.882812 117.410156 199.5625 C 116.578125 200.242188 115.71875 200.882812 114.824219 201.476562 C 113.929688 202.074219 113.011719 202.625 112.0625 203.128906 C 111.113281 203.636719 110.144531 204.09375 109.152344 204.503906 C 108.160156 204.914062 107.148438 205.273438 106.121094 205.585938 C 105.09375 205.898438 104.050781 206.15625 102.996094 206.367188 C 101.945312 206.578125 100.882812 206.734375 99.8125 206.839844 C 98.742188 206.945312 97.671875 206.996094 96.597656 206.996094 C 95.523438 206.996094 94.449219 206.945312 93.382812 206.839844 C 92.3125 206.734375 91.25 206.578125 90.195312 206.367188 C 89.144531 206.15625 88.101562 205.898438 87.074219 205.585938 C 86.046875 205.273438 85.035156 204.914062 84.042969 204.503906 C 83.050781 204.09375 82.078125 203.636719 81.132812 203.128906 C 80.183594 202.625 79.265625 202.074219 78.371094 201.476562 C 77.476562 200.882812 76.617188 200.242188 75.785156 199.5625 C 74.953125 198.882812 74.160156 198.164062 73.398438 197.402344 C 72.640625 196.644531 71.917969 195.851562 71.238281 195.023438 C 70.554688 194.195312 69.917969 193.332031 69.320312 192.441406 C 68.722656 191.550781 68.171875 190.628906 67.664062 189.683594 C 67.15625 188.738281 66.699219 187.769531 66.289062 186.78125 C 65.875 185.789062 65.515625 184.78125 65.203125 183.753906 C 64.890625 182.726562 64.628906 181.6875 64.421875 180.636719 C 64.210938 179.582031 64.054688 178.523438 63.949219 177.457031 C 63.84375 176.390625 63.789062 175.320312 63.789062 174.246094 C 63.789062 173.175781 63.84375 172.105469 63.949219 171.035156 C 64.054688 169.96875 64.210938 168.910156 64.421875 167.855469 C 64.628906 166.804688 64.890625 165.765625 65.203125 164.738281 C 65.515625 163.714844 65.875 162.703125 66.289062 161.714844 C 66.699219 160.722656 67.15625 159.753906 67.664062 158.808594 C 68.171875 157.863281 68.722656 156.945312 69.320312 156.050781 C 69.917969 155.160156 70.554688 154.300781 71.238281 153.46875 C 71.917969 152.640625 72.640625 151.847656 73.398438 151.089844 C 74.160156 150.332031 74.953125 149.609375 75.785156 148.929688 C 76.617188 148.25 77.476562 147.613281 78.371094 147.015625 C 79.265625 146.421875 80.183594 145.871094 81.132812 145.363281 C 82.078125 144.859375 83.050781 144.398438 84.042969 143.988281 C 85.035156 143.578125 86.046875 143.21875 87.074219 142.90625 C 88.101562 142.59375 89.144531 142.335938 90.195312 142.125 C 91.25 141.917969 92.3125 141.757812 93.382812 141.652344 C 94.449219 141.550781 95.523438 141.496094 96.597656 141.496094 C 97.671875 141.496094 98.742188 141.550781 99.8125 141.652344 C 100.882812 141.757812 101.945312 141.917969 102.996094 142.125 C 104.050781 142.335938 105.09375 142.59375 106.121094 142.90625 C 107.148438 143.21875 108.160156 143.578125 109.152344 143.988281 C 110.144531 144.398438 111.113281 144.859375 112.0625 145.363281 C 113.011719 145.871094 113.929688 146.421875 114.824219 147.015625 C 115.71875 147.613281 116.578125 148.25 117.410156 148.929688 C 118.242188 149.609375 119.035156 150.332031 119.796875 151.089844 C 120.554688 151.847656 121.277344 152.640625 121.957031 153.46875 C 122.640625 154.300781 123.277344 155.160156 123.875 156.050781 C 124.472656 156.945312 125.023438 157.863281 125.53125 158.808594 C 126.039062 159.753906 126.496094 160.722656 126.90625 161.714844 C 127.320312 162.703125 127.679688 163.714844 127.992188 164.738281 C 128.304688 165.765625 128.566406 166.804688 128.773438 167.855469 C 128.984375 168.910156 129.140625 169.96875 129.246094 171.035156 C 129.351562 172.105469 129.40625 173.175781 129.40625 174.246094 Z M 129.40625 174.246094 "/>
<g clip-path="url(#clip3)" clip-rule="nonzero">
<path style=" stroke:none;fill-rule:nonzero;fill:rgb(65.098572%,65.098572%,65.098572%);fill-opacity:1;" d="M 187.527344 193.898438 C 186.128906 193.898438 184.734375 193.933594 183.34375 194.003906 C 181.949219 194.074219 180.558594 194.179688 179.167969 194.316406 C 177.78125 194.453125 176.394531 194.625 175.015625 194.832031 C 173.636719 195.039062 172.261719 195.277344 170.890625 195.550781 C 169.523438 195.824219 168.164062 196.128906 166.808594 196.46875 C 165.457031 196.808594 164.113281 197.179688 162.777344 197.585938 C 161.441406 197.992188 160.117188 198.429688 158.804688 198.898438 C 157.488281 199.371094 156.1875 199.871094 154.898438 200.40625 C 153.609375 200.941406 152.335938 201.503906 151.074219 202.101562 C 149.8125 202.699219 148.566406 203.324219 147.335938 203.980469 C 146.105469 204.640625 144.894531 205.324219 143.695312 206.042969 C 142.5 206.757812 141.320312 207.503906 140.160156 208.277344 C 139 209.054688 137.859375 209.855469 136.738281 210.6875 C 135.621094 211.515625 134.519531 212.371094 133.441406 213.257812 C 132.363281 214.140625 131.304688 215.050781 130.273438 215.984375 C 129.238281 216.921875 128.226562 217.882812 127.242188 218.867188 C 126.253906 219.851562 125.292969 220.859375 124.355469 221.894531 C 123.417969 222.925781 122.507812 223.980469 121.621094 225.054688 C 120.734375 226.132812 119.878906 227.230469 119.046875 228.347656 C 118.214844 229.46875 117.410156 230.605469 116.632812 231.765625 C 115.859375 232.921875 115.113281 234.097656 114.394531 235.292969 C 113.675781 236.488281 112.988281 237.699219 112.328125 238.929688 C 111.671875 240.15625 111.042969 241.398438 110.445312 242.660156 C 109.847656 243.917969 109.28125 245.191406 108.75 246.476562 C 108.214844 247.765625 107.710938 249.0625 107.238281 250.375 C 106.769531 251.6875 106.328125 253.007812 105.921875 254.339844 C 105.515625 255.671875 105.144531 257.015625 104.804688 258.367188 C 104.464844 259.71875 104.15625 261.074219 103.882812 262.441406 C 103.609375 263.808594 103.371094 265.179688 103.164062 266.558594 C 102.957031 267.933594 102.785156 269.316406 102.648438 270.703125 C 102.507812 272.089844 102.40625 273.480469 102.335938 274.871094 C 102.265625 276.261719 102.230469 277.652344 102.226562 279.046875 C 102.226562 279.476562 102.269531 279.902344 102.351562 280.324219 C 102.4375 280.746094 102.5625 281.15625 102.726562 281.554688 C 102.890625 281.949219 103.09375 282.328125 103.332031 282.683594 C 103.574219 283.042969 103.84375 283.375 104.148438 283.679688 C 104.453125 283.980469 104.785156 284.253906 105.144531 284.492188 C 105.5 284.730469 105.878906 284.933594 106.277344 285.097656 C 106.675781 285.261719 107.085938 285.386719 107.507812 285.46875 C 107.929688 285.554688 108.359375 285.597656 108.789062 285.597656 L 266.261719 285.597656 C 266.695312 285.597656 267.121094 285.554688 267.542969 285.46875 C 267.964844 285.386719 268.375 285.261719 268.773438 285.097656 C 269.171875 284.933594 269.550781 284.730469 269.90625 284.492188 C 270.265625 284.253906 270.597656 283.980469 270.902344 283.679688 C 271.207031 283.375 271.480469 283.042969 271.71875 282.683594 C 271.957031 282.328125 272.160156 281.949219 272.324219 281.554688 C 272.488281 281.15625 272.613281 280.746094 272.699219 280.324219 C 272.78125 279.902344 272.824219 279.476562 272.824219 279.046875 C 272.824219 277.652344 272.785156 276.261719 272.714844 274.871094 C 272.648438 273.480469 272.542969 272.089844 272.402344 270.703125 C 272.265625 269.316406 272.09375 267.933594 271.886719 266.558594 C 271.679688 265.179688 271.441406 263.808594 271.167969 262.441406 C 270.894531 261.074219 270.585938 259.71875 270.246094 258.367188 C 269.90625 257.015625 269.535156 255.671875 269.128906 254.339844 C 268.722656 253.007812 268.28125 251.6875 267.8125 250.375 C 267.339844 249.0625 266.839844 247.765625 266.304688 246.476562 C 265.769531 245.191406 265.203125 243.917969 264.605469 242.660156 C 264.007812 241.398438 263.378906 240.15625 262.722656 238.929688 C 262.0625 237.699219 261.375 236.488281 260.65625 235.292969 C 259.9375 234.097656 259.191406 232.921875 258.417969 231.765625 C 257.640625 230.605469 256.835938 229.46875 256.003906 228.347656 C 255.175781 227.230469 254.316406 226.132812 253.429688 225.054688 C 252.542969 223.980469 251.632812 222.925781 250.695312 221.894531 C 249.757812 220.859375 248.796875 219.851562 247.808594 218.867188 C 246.824219 217.882812 245.8125 216.921875 244.777344 215.984375 C 243.746094 215.050781 242.6875 214.140625 241.609375 213.257812 C 240.53125 212.371094 239.433594 211.515625 238.3125 210.6875 C 237.191406 209.855469 236.050781 209.054688 234.890625 208.277344 C 233.730469 207.503906 232.550781 206.757812 231.355469 206.042969 C 230.160156 205.324219 228.945312 204.640625 227.714844 203.980469 C 226.484375 203.324219 225.238281 202.699219 223.976562 202.101562 C 222.714844 201.503906 221.441406 200.941406 220.152344 200.40625 C 218.863281 199.871094 217.5625 199.371094 216.246094 198.898438 C 214.933594 198.429688 213.609375 197.992188 212.273438 197.585938 C 210.941406 197.179688 209.59375 196.808594 208.242188 196.46875 C 206.890625 196.128906 205.527344 195.824219 204.160156 195.550781 C 202.789062 195.277344 201.417969 195.039062 200.035156 194.832031 C 198.65625 194.625 197.273438 194.453125 195.882812 194.316406 C 194.496094 194.179688 193.101562 194.074219 191.710938 194.003906 C 190.316406 193.933594 188.921875 193.898438 187.527344 193.898438 Z M 187.527344 193.898438 "/>
</g>
</g>
</svg>
