<?xml version="1.0" encoding="UTF-8" standalone="no"?>
<!-- Created with Inkscape (http://www.inkscape.org/) -->

<svg
   width="71.966675mm"
   height="30.159254mm"
   viewBox="0 0 71.966675 30.159254"
   version="1.1"
   id="svg5"
   inkscape:version="1.1 (c68e22c387, 2021-05-23)"
   sodipodi:docname="drawing.svg"
   xmlns:inkscape="http://www.inkscape.org/namespaces/inkscape"
   xmlns:sodipodi="http://sodipodi.sourceforge.net/DTD/sodipodi-0.dtd"
   xmlns="http://www.w3.org/2000/svg"
   xmlns:svg="http://www.w3.org/2000/svg">
  <sodipodi:namedview
     id="namedview7"
     pagecolor="#ffffff"
     bordercolor="#666666"
     borderopacity="1.0"
     inkscape:pageshadow="2"
     inkscape:pageopacity="0.0"
     inkscape:pagecheckerboard="0"
     inkscape:document-units="mm"
     showgrid="false"
     inkscape:zoom="3.0716611"
     inkscape:cx="55.507426"
     inkscape:cy="59.088551"
     inkscape:window-width="1920"
     inkscape:window-height="1051"
     inkscape:window-x="-9"
     inkscape:window-y="-9"
     inkscape:window-maximized="1"
     inkscape:current-layer="layer1" />
  <defs
     id="defs2" />
  <g
     inkscape:label="Layer 1"
     inkscape:groupmode="layer"
     id="layer1"
     transform="translate(-49.232705,-106.89021)">
    <path
       style="fill:#00aa00;fill-opacity:1;fill-rule:nonzero;stroke-width:0.322673"
       d="m 49.232705,113.23696 h 17.991666 v 23.8125 H 49.232705 Z"
       id="rect855" />
    <g
       aria-label="1"
       style="font-style:normal;font-weight:normal;font-size:829.604px;line-height:1.25;font-family:sans-serif;letter-spacing:0px;word-spacing:0px;fill:#ffffff;fill-opacity:0.733333;stroke:none;stroke-width:20.7401"
       id="text853"
       transform="matrix(0.02417928,0,0,0.02417928,49.232705,108.1872)">
      <path
         d="M 469.14723,997.37555 H 343.97754 v -342.6976 l 1.21524,-56.3061 2.0254,-61.57215 q -31.19116,31.19115 -43.34355,40.91307 L 235.8212,632.39856 175.4643,557.0537 366.25693,405.14873 h 102.8903 z"
         style="font-style:normal;font-variant:normal;font-weight:bold;font-stretch:normal;font-family:'Open Sans';-inkscape-font-specification:'Open Sans Bold';fill:#ffffff;fill-opacity:0.733333;stroke-width:20.7401"
         id="path939" />
    </g>
    <path
       style="fill:#ffcc00;fill-opacity:1;fill-rule:nonzero;stroke-width:0.322672"
       d="M 67.224371,113.23696 H 85.21604 v 23.8125 H 67.224371 Z"
       id="rect855-6" />
    <g
       aria-label="2"
       style="font-style:normal;font-weight:normal;font-size:829.604px;line-height:1.25;font-family:sans-serif;letter-spacing:0px;word-spacing:0px;fill:#ffffff;fill-opacity:0.733333;stroke:none;stroke-width:20.7401"
       id="text853-0"
       transform="matrix(0.02417928,0,0,0.02417928,67.224371,108.1872)">
      <path
         d="M 601.96055,997.37555 H 187.96889 V 910.28337 L 336.63321,759.99873 q 66.02802,-67.64835 86.28202,-93.57346 20.25399,-26.33019 29.16575,-48.60959 8.91176,-22.27939 8.91176,-46.17911 0,-35.64703 -19.84892,-53.06546 -19.44383,-17.41844 -52.2553,-17.41844 -34.43179,0 -66.83819,15.79812 -32.40639,15.79811 -67.64834,44.96387 l -68.05342,-80.6109 q 43.74863,-37.26736 72.5093,-52.66039 28.76067,-15.39304 62.78738,-23.49464 34.02672,-8.50667 76.15503,-8.50667 55.49594,0 98.02933,20.25399 42.53339,20.254 66.02803,56.71119 23.49463,36.45719 23.49463,83.44646 0,40.91307 -14.58288,76.96518 -14.17779,35.64703 -44.55879,73.31946 -29.97591,37.67243 -106.13093,107.34617 l -76.15502,71.69915 v 5.67111 h 258.0359 z"
         style="font-style:normal;font-variant:normal;font-weight:bold;font-stretch:normal;font-family:'Open Sans';-inkscape-font-specification:'Open Sans Bold';fill:#ffffff;fill-opacity:0.733333;stroke-width:20.7401"
         id="path952" />
    </g>
    <rect
       style="fill:#ff6600;fill-opacity:1;fill-rule:nonzero;stroke-width:0.322672"
       id="rect855-3"
       width="17.991669"
       height="23.812504"
       x="85.216042"
       y="113.23696" />
    <g
       aria-label="NOVA"
       style="font-style:normal;font-variant:normal;font-weight:800;font-stretch:normal;font-size:267.972px;line-height:0%;font-family:Raleway;-inkscape-font-specification:'Raleway Ultra-Bold';letter-spacing:0px;word-spacing:0px;fill:#7d7d7d;fill-opacity:1;stroke:none;stroke-width:22.331px;stroke-linecap:butt;stroke-linejoin:miter;stroke-opacity:1"
       id="text4305-7"
       transform="matrix(0.02417928,0,0,0.02417928,75.740982,108.1872)">
      <path
         d="M 53.238054,28.894823 V 137.69144 H 9.2906535 V -52.568651 H 43.591064 L 132.28978,59.175654 V -52.568651 h 43.9474 V 137.69144 h -35.3723 z"
         style="font-style:normal;font-variant:normal;font-weight:800;font-stretch:normal;font-family:Raleway;-inkscape-font-specification:'Raleway Ultra-Bold';fill:#7d7d7d;fill-opacity:1;stroke-width:22.331px"
         id="path957" />
      <path
         d="m 296.22582,139.29927 q -21.16979,0 -38.58796,-8.30713 -17.41818,-8.30713 -29.74489,-21.70573 -12.32671,-13.66657 -19.29398,-31.084747 -6.6993,-17.418177 -6.6993,-35.908242 0,-18.758037 6.96727,-36.1762138 7.23524,-17.4181772 19.82993,-30.5488032 12.86265,-13.398597 30.28083,-21.169784 17.41817,-8.039159 38.05201,-8.039159 21.16979,0 38.58796,8.307131 17.41818,8.307131 29.74489,21.9737 12.32671,13.6665699 19.02601,31.0847469 6.6993,17.4181771 6.6993,35.3722981 0,18.758037 -7.23524,36.176214 -6.96727,17.418177 -19.56196,30.816779 -12.59468,13.13062 -30.01285,21.16978 -17.41818,8.03916 -38.05202,8.03916 z M 246.65101,42.829365 q 0,10.98685 3.21566,21.437756 3.21566,10.182935 9.37902,18.222093 6.43132,8.039159 15.81034,12.862654 9.37902,4.823492 21.43776,4.823492 12.59468,0 21.9737,-5.091464 9.37902,-5.091467 15.54237,-13.130626 6.16336,-8.30713 9.11105,-18.490065 3.21566,-10.450906 3.21566,-21.169784 0,-10.98685 -3.21566,-21.169784 -3.21566,-10.450907 -9.64699,-18.2220933 -6.43133,-8.0391586 -15.81035,-12.5946818 -9.11104,-4.8234949 -21.16978,-4.8234949 -12.59468,0 -21.9737,5.0914668 -9.11105,4.8234952 -15.54237,12.8626538 -6.16336,8.0391584 -9.37902,18.4900644 -2.94769,10.182935 -2.94769,20.901813 z"
         style="font-style:normal;font-variant:normal;font-weight:800;font-stretch:normal;font-family:Raleway;-inkscape-font-specification:'Raleway Ultra-Bold';fill:#7d7d7d;fill-opacity:1;stroke-width:22.331px"
         id="path959" />
      <path
         d="m 437.27955,-52.568651 44.75132,135.057865 44.21537,-135.057865 h 46.35915 L 500.52093,137.69144 H 463.5408 L 390.65243,-52.568651 Z"
         style="font-style:normal;font-variant:normal;font-weight:800;font-stretch:normal;font-family:Raleway;-inkscape-font-specification:'Raleway Ultra-Bold';fill:#7d7d7d;fill-opacity:1;stroke-width:22.331px"
         id="path961" />
      <path
         d="m 625.73922,-52.568651 h 39.65985 L 734.80381,137.69144 H 689.78452 L 675.04606,95.083896 h -59.2218 L 601.35377,137.69144 H 556.33448 Z M 667.81082,64.803065 645.56915,-2.4578954 622.79153,64.803065 Z"
         style="font-style:normal;font-variant:normal;font-weight:800;font-stretch:normal;font-family:Raleway;-inkscape-font-specification:'Raleway Ultra-Bold';fill:#7d7d7d;fill-opacity:1;stroke-width:22.331px"
         id="path963" />
    </g>
    <g
       aria-label="3"
       style="font-style:normal;font-weight:normal;font-size:829.604px;line-height:1.25;font-family:sans-serif;letter-spacing:0px;word-spacing:0px;fill:#ffffff;fill-opacity:1;stroke:none;stroke-width:20.7401"
       id="text853-9"
       transform="matrix(0.02417928,0,0,0.02417928,85.21604,108.1872)">
      <path
         d="m 576.17972,537.60986 q 0,55.49595 -33.62163,94.38362 -33.62163,38.88767 -94.38362,53.47055 v 2.43047 q 71.69915,8.91176 108.56142,43.74863 36.86227,34.4318 36.86227,93.16838 0,85.47186 -61.97723,133.27129 -61.97722,47.3943 -177.01991,47.3943 -96.40902,0 -170.94372,-32.00126 V 866.93982 q 34.43179,17.41844 75.74994,28.35559 41.31815,10.93716 81.82614,10.93716 61.97722,0 91.54806,-21.06415 29.57083,-21.06416 29.57083,-67.64835 0,-41.72323 -34.02671,-59.14166 -34.02671,-17.41844 -108.56142,-17.41844 h -44.96386 v -96.00393 h 45.77402 q 68.86359,0 100.45982,-17.82352 32.00131,-18.2286 32.00131,-61.97723 0,-67.24326 -84.25662,-67.24326 -29.16575,0 -59.54674,9.72192 -29.97592,9.72192 -66.83819,33.62163 l -57.92642,-86.28202 q 81.01598,-58.3315 193.22311,-58.3315 91.95314,0 145.01861,37.26735 53.47054,37.26735 53.47054,103.70045 z"
         style="font-style:normal;font-variant:normal;font-weight:bold;font-stretch:normal;font-family:'Open Sans';-inkscape-font-specification:'Open Sans Bold';fill:#ffffff;fill-opacity:0.733333;stroke-width:20.7401"
         id="path966" />
    </g>
    <path
       style="fill:#ff0000;fill-opacity:1;fill-rule:nonzero;stroke-width:0.322672"
       d="m 103.20771,113.23696 h 17.99167 v 23.8125 h -17.99167 z"
       id="rect855-4" />
    <g
       aria-label="4"
       style="font-style:normal;font-weight:normal;font-size:829.604px;line-height:1.25;font-family:sans-serif;letter-spacing:0px;word-spacing:0px;fill:#ffffff;fill-opacity:0.733333;stroke:none;stroke-width:20.7401"
       id="text853-8"
       transform="matrix(0.02417928,0,0,0.02417928,103.20771,108.1872)">
      <path
         d="M 595.24626,874.63634 H 523.9522 V 997.37555 H 401.61807 V 874.63634 H 148.84821 V 787.54416 L 408.50442,405.14873 H 523.9522 v 372.26843 h 71.29406 z M 401.61807,777.41716 V 676.95735 q 0,-25.11496 2.02539,-72.91438 2.0254,-47.79943 3.24064,-55.49595 h -3.24064 q -14.98795,33.21655 -36.05211,64.81278 L 259.02994,777.41716 Z"
         style="font-style:normal;font-variant:normal;font-weight:bold;font-stretch:normal;font-family:'Open Sans';-inkscape-font-specification:'Open Sans Bold';fill:#ffffff;fill-opacity:0.733333;stroke-width:20.7401"
         id="path979" />
    </g>
  </g>
</svg>
